<?xml version="1.0" encoding="utf-8"?>
<!-- Generated by IcoMoon.io -->
<!DOCTYPE svg PUBLIC "-//W3C//DTD SVG 1.1//EN" "http://www.w3.org/Graphics/SVG/1.1/DTD/svg11.dtd">
<svg version="1.1" xmlns="http://www.w3.org/2000/svg" xmlns:xlink="http://www.w3.org/1999/xlink" width="512" height="512" viewBox="0 0 512 512">
<g>
</g>
	<path d="M167.67 242.617c15.524 1.618 11.346-10.844 11.346-10.844s33.577-67.42 93.399-72.622c-16.22-14.018-39.342-23.962-72.601-23.962-64.409 0-100.608 73.103-100.608 73.103l33.884 28.815c2.898 2.181 5.703 4.536 8.417 7.096 8.325-2.028 17.214-2.581 26.163-1.587z" fill="#000000" />
	<path d="M141.415 244.244l-8.325-7.117c-48.394-35.911-119.757-19.825-119.757 51.692 0 0 2.018 52.296 27.515 52.296 9.657 0 30.535-0.041 57.436-0.123-4.485-13.803-5.13-28.743-5.13-28.743 0-38.892 21.177-61.348 48.261-68.004z" fill="#000000" />
	<path d="M141.506 244.224c-2.724-2.56-5.519-4.915-8.417-7.096l8.325 7.117c0.030-0.020 0.092-0.020 0.092-0.020z" fill="#000000" />
	<path d="M144.149 246.518c-0.829-0.819-1.772-1.495-2.642-2.304 0 0-0.071 0-0.102 0.020l2.744 2.284z" fill="#000000" />
	<path d="M142.592 376.801c38.246 0 250.911 0 326.032 0 74.486-73.8-9.349-124.099-38.892-124.099l-18.115 34.202c0 0 3.358-115.385-110.050-115.385-64.368 0-100.577 73.144-100.577 73.144l44.933 38.216c-47.616-47.637-130.806-34.877-130.806 42.24-0.010 0 2.007 51.682 27.474 51.682z" fill="#000000" />
</svg>
